# xmcd
#
# Track frame offsets:
#	150
#	16995
#	31867
#	45107
#	58717
#	68967
#	82975
#	99225
#	117900
#	133785
#
# Disc length: 1976 seconds
# Revision: 2
# Processed by: cddbd v1.5.2PL0 Copyright (c) Steve Scherf et al.
# Submitted via: dBpowerAMP V12.0
#
DISCID=7407b60a
DTITLE=Various Artist - New Country: Vol. 3, No. 9
DYEAR=1996
DGENRE=Country
TTITLE0=Robbie Fulks - The Buck Starts Here
TTITLE1=Johnnie Rodriguez - You Can Say That Again
TTITLE2=Paul Jefferson - I Might Just Make It
TTITLE3=Jim Lauderdale - Seems Like You`re Gonna Take Me Back
TTITLE4=Amy Rigby - Down Side Of Love
TTITLE5=Billy Ray Cyrus - Trail Of Tears (Single Edit)
TTITLE6=Davis Daniel - Here`s Lookin` At You
TTITLE7=John Gorka - Can`t Make Up My Mind
TTITLE8=Judith Edelman - Every Day You`re Gone
TTITLE9=Doyle Lawson and Quicksilver - There Is A God
EXTD=
EXTT0=
EXTT1=
EXTT2=
EXTT3=
EXTT4=
EXTT5=
EXTT6=
EXTT7=
EXTT8=
EXTT9=
PLAYORDER=
